<svg width="51" height="50" viewBox="0 0 51 50" fill="none" xmlns="http://www.w3.org/2000/svg">
<circle cx="25.5" cy="25" r="24.5" fill="#1A1A1A" stroke="#222222"/>
<path fill-rule="evenodd" clip-rule="evenodd" d="M19.0393 36.9928L23.1852 38.0928V36.6544L23.5236 36.3159H25.8927V38.0081V39.1926H23.3544L20.2238 37.8389L19.0393 36.9928Z" fill="#CDBDB2"/>
<path fill-rule="evenodd" clip-rule="evenodd" d="M32.5769 36.9928L28.5157 38.0928V36.6544L28.1772 36.3159H25.8082V38.0081V39.1926H28.3465L31.4769 37.8389L32.5769 36.9928Z" fill="#CDBDB2"/>
<path fill-rule="evenodd" clip-rule="evenodd" d="M23.5235 33.8704L23.1851 36.6624L23.608 36.3239H28.0077L28.5153 36.6624L28.1769 33.8704L27.5 33.4473L24.1157 33.5319L23.5235 33.8704Z" fill="#393939"/>
<path fill-rule="evenodd" clip-rule="evenodd" d="M21.2397 15.0024L23.2704 19.7405L24.2011 33.5318H27.5008L28.5161 19.7405L30.3775 15.0024H21.2397Z" fill="#F89C35"/>
<path fill-rule="evenodd" clip-rule="evenodd" d="M12.3554 25.402L9.98633 32.2553L15.9089 31.9168H19.7162V28.9556L19.547 22.8638L18.7009 23.5406L12.3554 25.402Z" fill="#F89D35"/>
<path fill-rule="evenodd" clip-rule="evenodd" d="M16.8391 26.1719L23.777 26.3411L23.0156 29.8947L19.7158 29.0486L16.8391 26.1719Z" fill="#D87C30"/>
<path fill-rule="evenodd" clip-rule="evenodd" d="M16.8391 26.2573L19.7158 28.9648V31.6723L16.8391 26.2573Z" fill="#EA8D3A"/>
<path fill-rule="evenodd" clip-rule="evenodd" d="M19.7168 29.0405L23.1011 29.8866L24.2011 33.5249L23.4396 33.9478L19.7168 31.748V29.0405Z" fill="#F89D35"/>
<path fill-rule="evenodd" clip-rule="evenodd" d="M19.7162 31.7505L19.0393 36.9962L23.5236 33.8658L19.7162 31.7505Z" fill="#EB8F35"/>
<path fill-rule="evenodd" clip-rule="evenodd" d="M23.778 26.3306L24.2011 33.5224L22.9319 29.8419L23.778 26.3306Z" fill="#EA8E3A"/>
<path fill-rule="evenodd" clip-rule="evenodd" d="M15.8242 31.8352L19.7162 31.7505L19.0393 36.9962L15.8242 31.8352Z" fill="#D87C30"/>
<path fill-rule="evenodd" clip-rule="evenodd" d="M11.8477 39.2815L19.0394 36.997L15.8242 31.8359L9.98633 32.2589L11.8477 39.2815Z" fill="#EB8F35"/>
<path fill-rule="evenodd" clip-rule="evenodd" d="M23.2694 19.7388L19.6313 22.7847L16.8391 26.169L23.777 26.4229L23.2694 19.7388Z" fill="#E8821E"/>
<path fill-rule="evenodd" clip-rule="evenodd" d="M19.0393 36.9928L23.5236 33.8623L23.1852 36.5698V38.0927L20.1393 37.5004L19.0393 36.9928Z" fill="#DFCEC3"/>
<path fill-rule="evenodd" clip-rule="evenodd" d="M32.5769 36.9928L28.1772 33.8623L28.5157 36.5698V38.0927L31.5616 37.5004L32.5769 36.9928Z" fill="#DFCEC3"/>
<path fill-rule="evenodd" clip-rule="evenodd" d="M21.9157 27.8564L22.8464 29.8025L19.5466 28.9564L21.9157 27.8564Z" fill="#393939"/>
<path fill-rule="evenodd" clip-rule="evenodd" d="M11.7625 11.0229L23.2692 19.7376L21.3233 14.9995L11.7625 11.0229Z" fill="#E88F35"/>
<path fill-rule="evenodd" clip-rule="evenodd" d="M11.7627 11.0229L10.2397 15.6764L11.0858 20.7529L10.4936 21.0914L11.3397 21.8529L10.6628 22.4451L11.5935 23.2912L11.0012 23.7989L12.355 25.491L18.7006 23.545C21.8029 21.0632 23.3259 19.794 23.2695 19.7376C23.2131 19.6812 19.3775 16.7763 11.7627 11.0229Z" fill="#8E5A30"/>
<path fill-rule="evenodd" clip-rule="evenodd" d="M39.2608 25.402L41.6299 32.2553L35.7073 31.9168H31.9V28.9556L32.0692 22.8638L32.9153 23.5406L39.2608 25.402Z" fill="#F89D35"/>
<path fill-rule="evenodd" clip-rule="evenodd" d="M34.7771 26.1719L27.8392 26.3411L28.6006 29.8947L31.9004 29.0486L34.7771 26.1719Z" fill="#D87C30"/>
<path fill-rule="evenodd" clip-rule="evenodd" d="M34.7771 26.2573L31.9004 28.9648V31.6723L34.7771 26.2573Z" fill="#EA8D3A"/>
<path fill-rule="evenodd" clip-rule="evenodd" d="M31.8994 29.0405L28.5151 29.8866L27.4151 33.5249L28.1766 33.9478L31.8994 31.748V29.0405Z" fill="#F89D35"/>
<path fill-rule="evenodd" clip-rule="evenodd" d="M31.9 31.7505L32.5769 36.9962L28.1773 33.9503L31.9 31.7505Z" fill="#EB8F35"/>
<path fill-rule="evenodd" clip-rule="evenodd" d="M27.8382 26.3306L27.4151 33.5224L28.6843 29.8419L27.8382 26.3306Z" fill="#EA8E3A"/>
<path fill-rule="evenodd" clip-rule="evenodd" d="M35.7917 31.8352L31.8997 31.7505L32.5766 36.9962L35.7917 31.8352Z" fill="#D87C30"/>
<path fill-rule="evenodd" clip-rule="evenodd" d="M39.7685 39.2815L32.5768 36.997L35.792 31.8359L41.6299 32.2589L39.7685 39.2815Z" fill="#EB8F35"/>
<path fill-rule="evenodd" clip-rule="evenodd" d="M28.3468 19.7388L31.9849 22.7847L34.7771 26.169L27.8392 26.4229L28.3468 19.7388Z" fill="#E8821E"/>
<path fill-rule="evenodd" clip-rule="evenodd" d="M29.7005 27.8564L28.7698 29.8025L32.0696 28.9564L29.7005 27.8564Z" fill="#393939"/>
<path fill-rule="evenodd" clip-rule="evenodd" d="M39.8538 11.0229L28.347 19.7376L30.2929 14.9995L39.8538 11.0229Z" fill="#E88F35"/>
<path fill-rule="evenodd" clip-rule="evenodd" d="M39.8535 11.0229L41.3765 15.6764L40.5304 20.7529L41.1226 21.0914L40.2766 21.8529L40.9534 22.4451L40.0227 23.2912L40.615 23.7989L39.2612 25.491L32.9156 23.545C29.8133 21.0632 28.2903 19.794 28.3467 19.7376C28.4031 19.6812 32.2387 16.7763 39.8535 11.0229Z" fill="#8E5A30"/>
</svg>
