<svg width="50" height="50" viewBox="0 0 50 50" fill="none" xmlns="http://www.w3.org/2000/svg">
<path d="M25 0.5C38.5325 0.5 49.5 11.4675 49.5 25C49.5 38.5325 38.5325 49.5 25 49.5C11.4675 49.5 0.5 38.5325 0.5 25C0.5 11.4675 11.4675 0.5 25 0.5Z" fill="#121212" stroke="#222222"/>
<path d="M15.8889 19.3091C20.9182 14.397 29.0823 14.397 34.1116 19.3091L34.717 19.9048C34.9709 20.1489 34.9709 20.5493 34.717 20.7934L32.6467 22.8149C32.5198 22.9419 32.3147 22.9419 32.1877 22.8149L31.3577 22.0044C27.842 18.5767 22.1584 18.5767 18.6428 22.0044L17.7541 22.8735C17.6272 23.0005 17.4221 23.0005 17.2952 22.8735L15.2249 20.852C14.9709 20.6079 14.9709 20.2075 15.2249 19.9634L15.8889 19.3091ZM38.3987 23.4887L40.2444 25.2856C40.4983 25.5298 40.4983 25.9302 40.2444 26.1743L31.9338 34.2895C31.6799 34.5336 31.2698 34.5336 31.0256 34.2895L25.1272 28.5278C25.0686 28.4692 24.9612 28.4692 24.9026 28.5278L19.0041 34.2895C18.7502 34.5336 18.3401 34.5336 18.0959 34.2895L9.7561 26.1743C9.5022 25.9302 9.5022 25.5298 9.7561 25.2856L11.6018 23.4887C11.8557 23.2446 12.2659 23.2446 12.51 23.4887L18.4084 29.2505C18.467 29.309 18.5745 29.309 18.6331 29.2505L24.5315 23.4887C24.7854 23.2446 25.1955 23.2446 25.4397 23.4887L31.3381 29.2505C31.3967 29.309 31.5041 29.309 31.5627 29.2505L37.4612 23.4887C37.7346 23.2446 38.1448 23.2446 38.3987 23.4887Z" fill="#0270FF"/>
</svg>
