<svg width="1440" height="1038" viewBox="0 0 1440 1038" fill="none" xmlns="http://www.w3.org/2000/svg">
<g clip-path="url(#clip0_270_3277)">
<rect width="1440" height="1038" fill="black"/>
<path opacity="0.11" d="M1464.97 429.391C1266.92 429.391 1208.81 507.203 1129.28 507.203C1049.76 507.203 875.512 259.391 633.591 213.714C391.67 168.036 293.552 486.891 196.268 496.188C98.9833 505.484 184.416 388.792 -86 119M-85.974 132.255C184.442 402.047 99.0094 518.766 196.294 509.443C293.578 500.146 391.696 181.292 633.617 226.969C875.538 272.646 1049.79 520.432 1129.31 520.432C1208.83 520.432 1266.94 442.62 1465 442.62M-85.974 145.484C184.442 415.276 99.0094 531.995 196.294 522.672C293.578 513.375 391.696 194.521 633.617 240.198C875.538 285.875 1049.79 533.661 1129.31 533.661C1208.83 533.661 1266.94 455.849 1465 455.849M-85.974 158.74C184.442 428.531 99.0094 545.25 196.294 535.927C293.578 526.63 391.696 207.776 633.617 253.453C875.538 299.13 1049.79 546.917 1129.31 546.917C1208.83 546.917 1266.94 469.104 1465 469.104M-85.974 171.995C184.442 441.786 99.0094 558.505 196.294 549.182C293.578 539.885 391.696 221.031 633.617 266.708C875.538 312.385 1049.76 560.172 1129.28 560.172C1208.81 560.172 1266.92 482.359 1464.97 482.359M-85.974 185.224C184.442 455.016 99.0094 571.734 196.294 562.411C293.578 553.115 391.696 234.26 633.617 279.938C875.538 325.615 1049.79 573.401 1129.31 573.401C1208.83 573.401 1266.94 495.589 1465 495.589M-85.974 198.479C184.442 468.271 99.0094 584.99 196.294 575.667C293.578 566.344 391.696 247.516 633.617 293.193C875.538 338.87 1049.79 586.656 1129.31 586.656C1208.83 586.656 1266.94 508.844 1465 508.844M-85.974 211.708C184.442 481.5 99.0094 598.219 196.294 588.896C293.578 579.599 391.696 260.745 633.617 306.422C875.538 352.099 1049.79 599.885 1129.31 599.885C1208.83 599.885 1266.94 522.073 1465 522.073M-85.974 224.964C184.416 494.755 98.9833 611.474 196.268 602.151C293.552 592.854 391.67 274 633.591 319.677C875.512 365.354 1049.76 613.141 1129.28 613.141C1208.81 613.141 1266.92 535.328 1464.97 535.328M-85.974 238.219C184.442 508.01 99.0094 624.729 196.294 615.406C293.578 606.109 391.696 287.255 633.617 332.932C875.538 378.609 1049.79 626.396 1129.31 626.396C1208.83 626.396 1266.94 548.583 1465 548.583M-85.974 251.448C184.416 521.24 98.9833 637.958 196.268 628.661C293.552 619.365 391.67 300.51 633.591 346.188C875.512 391.865 1049.76 639.651 1129.28 639.651C1208.81 639.651 1266.92 561.839 1464.97 561.839M-85.974 264.703C184.442 534.495 99.0094 651.214 196.294 641.891C293.578 632.594 391.696 313.74 633.617 359.417C875.538 405.094 1049.76 652.88 1129.28 652.88C1208.81 652.88 1266.92 575.068 1464.97 575.068M-85.974 277.932C184.442 547.724 99.0094 664.443 196.294 655.12C293.578 645.823 391.696 326.969 633.617 372.646C875.538 418.323 1049.79 666.109 1129.31 666.109C1208.83 666.109 1266.94 588.297 1465 588.297M-85.974 291.187C184.442 560.979 99.0094 677.698 196.294 668.375C293.578 659.078 391.696 340.224 633.617 385.901C875.538 431.578 1049.79 679.365 1129.31 679.365C1208.83 679.365 1266.92 601.578 1464.97 601.578M-85.974 304.443C184.442 574.234 99.0094 690.953 196.294 681.63C293.578 672.333 391.696 353.479 633.617 399.156C875.538 444.833 1049.79 692.62 1129.31 692.62C1208.83 692.62 1266.94 614.807 1465 614.807M-85.974 317.672C184.416 587.464 98.9833 704.182 196.268 694.885C293.552 685.589 391.67 366.734 633.591 412.411C875.512 458.089 1049.76 705.875 1129.28 705.875C1208.81 705.875 1266.92 628.063 1464.97 628.063M-85.974 330.927C184.442 600.719 99.0094 717.438 196.294 708.115C293.578 698.792 391.696 379.964 633.617 425.641C875.538 471.318 1049.79 719.104 1129.31 719.104C1208.83 719.104 1266.94 641.292 1465 641.292M-85.974 344.156C184.416 613.948 98.9833 730.667 196.268 721.37C293.552 712.073 391.67 393.219 633.591 438.896C875.512 484.573 1049.76 732.359 1129.28 732.359C1208.81 732.359 1266.92 654.547 1464.97 654.547M-85.974 357.411C184.442 627.203 99.0094 743.922 196.294 734.599C293.578 725.302 391.696 406.448 633.617 452.125C875.538 497.802 1049.79 745.589 1129.31 745.589C1208.83 745.589 1266.94 667.776 1465 667.776M-85.974 370.667C184.442 640.458 99.0094 757.177 196.294 747.854C293.578 738.531 391.696 419.703 633.617 465.38C875.538 511.057 1049.79 758.844 1129.31 758.844C1208.83 758.844 1266.94 681.031 1465 681.031M-85.974 383.896C184.442 653.688 99.0094 770.406 196.294 761.083C293.578 751.76 391.696 432.932 633.617 478.609C875.538 524.286 1049.79 772.073 1129.31 772.073C1208.83 772.073 1266.92 694.286 1464.97 694.286M-85.974 397.151C184.416 666.943 98.9833 783.635 196.268 774.339C293.552 765.042 391.67 446.187 633.591 491.865C875.512 537.542 1049.76 785.328 1129.28 785.328C1208.81 785.328 1266.92 707.516 1464.97 707.516M-85.974 410.406C184.416 680.172 98.9833 796.891 196.268 787.594C293.552 778.297 391.67 459.443 633.591 505.12C875.512 550.797 1049.76 798.583 1129.28 798.583C1208.81 798.583 1266.92 720.771 1464.97 720.771M-85.974 423.635C184.442 693.427 99.0094 810.146 196.294 800.823C293.578 791.5 391.696 472.672 633.617 518.349C875.538 564.026 1049.79 811.813 1129.31 811.813C1208.83 811.813 1266.94 734 1465 734M-85.974 436.891C184.416 706.682 98.9833 823.375 196.268 814.078C293.552 804.781 391.67 485.927 633.591 531.604C875.512 577.281 1049.76 825.068 1129.28 825.068C1208.81 825.068 1266.92 747.255 1464.97 747.255M-85.974 450.12C184.442 719.911 99.0094 836.63 196.294 827.307C293.578 817.984 391.696 499.156 633.617 544.833C875.538 590.51 1049.79 838.297 1129.31 838.297C1208.83 838.297 1266.94 760.484 1465 760.484M-85.974 463.375C184.442 733.167 99.0094 849.885 196.294 840.562C293.578 831.266 391.696 512.411 633.617 558.089C875.538 603.766 1049.76 851.578 1129.28 851.578C1208.81 851.578 1266.92 773.766 1464.97 773.766M-85.974 476.63C184.442 746.422 99.0094 863.141 196.294 853.818C293.578 844.495 391.696 525.667 633.617 571.344C875.538 617.021 1049.79 864.807 1129.31 864.807C1208.83 864.807 1266.92 786.995 1464.97 786.995M-85.974 489.859C184.416 759.651 98.9833 876.37 196.268 867.073C293.552 857.776 391.67 538.922 633.591 584.599C875.512 630.276 1049.76 878.063 1129.28 878.063C1208.81 878.063 1266.92 800.25 1464.97 800.25M-85.974 503.115C184.416 772.906 98.9833 889.599 196.268 880.302C293.552 871.005 391.67 552.151 633.591 597.828C875.512 643.505 1049.76 891.292 1129.28 891.292C1208.81 891.292 1266.92 813.479 1464.97 813.479M-85.974 516.344C184.442 786.135 99.0094 902.854 196.294 893.531C293.578 884.234 391.696 565.38 633.617 611.057C875.538 656.734 1049.79 904.521 1129.31 904.521C1208.83 904.521 1266.94 826.708 1465 826.708M-85.974 529.599C184.416 799.391 98.9833 916.109 196.268 906.787C293.552 897.464 391.67 578.635 633.591 624.312C875.512 669.99 1049.76 917.776 1129.28 917.776C1208.81 917.776 1266.92 839.964 1464.97 839.964M-85.974 542.854C184.442 812.646 99.0094 929.365 196.294 920.042C293.578 910.719 391.696 591.891 633.617 637.568C875.538 683.245 1049.79 931.031 1129.31 931.031C1208.83 931.031 1266.94 853.219 1465 853.219M-85.974 556.083C184.442 825.875 99.0094 942.594 196.294 933.271C293.578 923.974 391.696 605.12 633.617 650.797C875.538 696.474 1049.76 944.286 1129.28 944.286C1208.81 944.286 1266.92 866.474 1464.97 866.474M-85.974 569.339C184.442 839.13 99.0094 955.849 196.294 946.526C293.578 937.203 391.696 618.375 633.617 664.052C875.538 709.729 1049.79 957.516 1129.31 957.516C1208.83 957.516 1266.94 879.703 1465 879.703M-85.974 582.594C184.416 852.359 98.9833 969.078 196.268 959.781C293.552 950.484 391.67 631.63 633.591 677.307C875.512 722.984 1049.76 970.771 1129.28 970.771C1208.81 970.771 1266.92 892.958 1464.97 892.958M-85.974 595.823C184.442 865.615 99.0094 982.333 196.294 973.01C293.578 963.688 391.696 644.859 633.617 690.536C875.538 736.214 1049.79 984 1129.31 984C1208.83 984 1266.94 906.188 1465 906.188" stroke="#61D290" stroke-width="0.5" stroke-miterlimit="10"/>
<g filter="url(#filter0_f_270_3277)">
<circle cx="48" cy="48" r="168" fill="#61D290" fill-opacity="0.8"/>
</g>
</g>
<defs>
<filter id="filter0_f_270_3277" x="-484" y="-484" width="1064" height="1064" filterUnits="userSpaceOnUse" color-interpolation-filters="sRGB">
<feFlood flood-opacity="0" result="BackgroundImageFix"/>
<feBlend mode="normal" in="SourceGraphic" in2="BackgroundImageFix" result="shape"/>
<feGaussianBlur stdDeviation="182" result="effect1_foregroundBlur_270_3277"/>
</filter>
<clipPath id="clip0_270_3277">
<rect width="1440" height="1038" fill="white"/>
</clipPath>
</defs>
</svg>
