<svg width="20" height="20" viewBox="0 0 20 20" fill="none" xmlns="http://www.w3.org/2000/svg">
<path d="M17.7083 7.62506C15.7833 4.60006 12.9666 2.8584 9.99996 2.8584C8.51662 2.8584 7.07496 3.29173 5.75829 4.10007C4.44163 4.91673 3.25829 6.1084 2.29163 7.62506C1.45829 8.9334 1.45829 11.0584 2.29163 12.3667C4.21663 15.4001 7.03329 17.1334 9.99996 17.1334C11.4833 17.1334 12.925 16.7001 14.2416 15.8917C15.5583 15.0751 16.7416 13.8834 17.7083 12.3667C18.5416 11.0667 18.5416 8.9334 17.7083 7.62506ZM9.99996 13.3667C8.13329 13.3667 6.63329 11.8584 6.63329 10.0001C6.63329 8.14173 8.13329 6.6334 9.99996 6.6334C11.8666 6.6334 13.3666 8.14173 13.3666 10.0001C13.3666 11.8584 11.8666 13.3667 9.99996 13.3667Z" fill="#CDCDCD"/>
<path d="M10 7.61621C8.69167 7.61621 7.625 8.68288 7.625 9.99954C7.625 11.3079 8.69167 12.3745 10 12.3745C11.3083 12.3745 12.3833 11.3079 12.3833 9.99954C12.3833 8.69121 11.3083 7.61621 10 7.61621Z" fill="#CDCDCD"/>
</svg>
